<svg xmlns="http://www.w3.org/2000/svg" width="28.24" height="20.96" viewBox="0 0 28.24 20.96"><g transform="translate(-738.76 -10377.04)"><path d="M92.84,43a5.343,5.343,0,0,0,5.36-5.68c0-3.04-2.48-5.12-5.6-5.28a14.045,14.045,0,0,1,4.48-8.8l-2.32-1.2a16.518,16.518,0,0,0-8,14C86.76,40.84,89.72,43,92.84,43Zm16.72,0A5.4,5.4,0,0,0,115,37.32c0-3.04-2.56-5.12-5.6-5.28a14.018,14.018,0,0,1,4.4-8.8l-2.32-1.2a16.629,16.629,0,0,0-7.92,14C103.56,40.84,106.52,43,109.56,43Z" transform="translate(652 10355)" fill="#9d9d9d"/></g></svg>