<svg xmlns="http://www.w3.org/2000/svg" width="21.662" height="21.661" viewBox="0 0 21.662 21.661"><g transform="translate(-1572 -42)"><path d="M21.661,19.754l-4.5-4.5a9.328,9.328,0,0,0,1.907-5.722A9.478,9.478,0,0,0,9.537,0,9.478,9.478,0,0,0,0,9.537a9.478,9.478,0,0,0,9.537,9.537,9.328,9.328,0,0,0,5.722-1.907l4.5,4.5ZM2.725,9.537A6.746,6.746,0,0,1,9.537,2.725a6.746,6.746,0,0,1,6.812,6.812,6.746,6.746,0,0,1-6.812,6.812A6.746,6.746,0,0,1,2.725,9.537Z" transform="translate(1572 42)" fill="#fff"/></g></svg>