<svg viewBox="81.598 181.656 74.76 43.6" width="74.76" height="43.6" xmlns="http://www.w3.org/2000/svg"><path d="M118.688 181.656a41 41 0 0 0-18.37 4.34c-8.45 4.33-13.58 11.07-15.3 19.86l-3.42 19.4h37.66a40.22 40.22 0 0 0 18.26-4.34c8.45-4.34 13.7-11.07 15.18-19.86l3.66-19.4zm20.91 24.77a4.63 4.63 0 0 1-2.51 3 8.92 8.92 0 0 1-4.49 1.11h-15.62a7.65 7.65 0 0 1-3.54-.8 3.1 3.1 0 0 1-1.94-3.31 4.48 4.48 0 0 1 3.2-3.31 11.22 11.22 0 0 1 3.88-.8h15.52a7.65 7.65 0 0 1 3.54.8 2.89 2.89 0 0 1 1.96 3.31zm3.18-17.47a4.15 4.15 0 0 1-2.51 3 8.92 8.92 0 0 1-4.45 1.14h-12.79a20 20 0 0 0-9.82 2.51 14.75 14.75 0 0 0-7.41 10.59l-3.43 19.06h-16.77l3.42-19.17c1.37-7.77 5.71-13.43 13.12-17.24a37.9 37.9 0 0 1 16.89-4h18.27a7.34 7.34 0 0 1 3.54.8 2.83 2.83 0 0 1 1.94 3.31z" fill="#5dc145"/></svg>